<svg width="156" height="95" viewBox="0 0 156 95" fill="none" xmlns="http://www.w3.org/2000/svg">
<path d="M78.0215 27.2031H79.665L83.8574 37.6357L88.041 27.2031H89.6934L84.4902 40H83.207L78.0215 27.2031ZM77.4854 27.2031H78.9355L79.1729 35.0078V40H77.4854V27.2031ZM88.7705 27.2031H90.2207V40H88.5332V35.0078L88.7705 27.2031ZM92.5234 35.3506V35.1484C92.5234 34.4629 92.623 33.8271 92.8223 33.2412C93.0215 32.6494 93.3086 32.1367 93.6836 31.7031C94.0586 31.2637 94.5127 30.9238 95.0459 30.6836C95.5791 30.4375 96.1768 30.3145 96.8389 30.3145C97.5068 30.3145 98.1074 30.4375 98.6406 30.6836C99.1797 30.9238 99.6367 31.2637 100.012 31.7031C100.393 32.1367 100.683 32.6494 100.882 33.2412C101.081 33.8271 101.181 34.4629 101.181 35.1484V35.3506C101.181 36.0361 101.081 36.6719 100.882 37.2578C100.683 37.8438 100.393 38.3564 100.012 38.7959C99.6367 39.2295 99.1826 39.5693 98.6494 39.8154C98.1221 40.0557 97.5244 40.1758 96.8564 40.1758C96.1885 40.1758 95.5879 40.0557 95.0547 39.8154C94.5215 39.5693 94.0645 39.2295 93.6836 38.7959C93.3086 38.3564 93.0215 37.8438 92.8223 37.2578C92.623 36.6719 92.5234 36.0361 92.5234 35.3506ZM94.1494 35.1484V35.3506C94.1494 35.8252 94.2051 36.2734 94.3164 36.6953C94.4277 37.1113 94.5947 37.4805 94.8174 37.8027C95.0459 38.125 95.3301 38.3799 95.6699 38.5674C96.0098 38.749 96.4053 38.8398 96.8564 38.8398C97.3018 38.8398 97.6914 38.749 98.0254 38.5674C98.3652 38.3799 98.6465 38.125 98.8691 37.8027C99.0918 37.4805 99.2588 37.1113 99.3701 36.6953C99.4873 36.2734 99.5459 35.8252 99.5459 35.3506V35.1484C99.5459 34.6797 99.4873 34.2373 99.3701 33.8213C99.2588 33.3994 99.0889 33.0273 98.8604 32.7051C98.6377 32.377 98.3564 32.1191 98.0166 31.9316C97.6826 31.7441 97.29 31.6504 96.8389 31.6504C96.3936 31.6504 96.001 31.7441 95.6611 31.9316C95.3271 32.1191 95.0459 32.377 94.8174 32.7051C94.5947 33.0273 94.4277 33.3994 94.3164 33.8213C94.2051 34.2373 94.1494 34.6797 94.1494 35.1484ZM104.978 37.4248L109.363 30.4902H110.998V40H109.363V33.0654L104.978 40H103.36V30.4902H104.978V37.4248ZM108.476 27.0449H109.794C109.794 27.502 109.688 27.9092 109.478 28.2666C109.267 28.6182 108.965 28.8936 108.572 29.0928C108.18 29.292 107.714 29.3916 107.175 29.3916C106.36 29.3916 105.716 29.1748 105.241 28.7412C104.772 28.3018 104.538 27.7363 104.538 27.0449H105.856C105.856 27.3906 105.956 27.6953 106.155 27.959C106.354 28.2227 106.694 28.3545 107.175 28.3545C107.644 28.3545 107.978 28.2227 108.177 27.959C108.376 27.6953 108.476 27.3906 108.476 27.0449ZM124.173 26.3506H125.509C125.509 26.9248 125.421 27.3818 125.245 27.7217C125.069 28.0557 124.829 28.3135 124.524 28.4951C124.226 28.6768 123.886 28.8145 123.505 28.9082C123.13 29.002 122.74 29.0928 122.336 29.1807C121.832 29.2861 121.363 29.4531 120.93 29.6816C120.502 29.9043 120.133 30.2207 119.822 30.6309C119.518 31.041 119.292 31.5742 119.146 32.2305C119.005 32.8867 118.967 33.6982 119.031 34.665V35.4736H117.695V34.665C117.695 33.5811 117.798 32.6348 118.003 31.8262C118.214 31.0176 118.51 30.335 118.891 29.7783C119.271 29.2217 119.723 28.7793 120.244 28.4512C120.771 28.123 121.352 27.8975 121.984 27.7744C122.441 27.6865 122.834 27.5928 123.162 27.4932C123.49 27.3877 123.739 27.2471 123.909 27.0713C124.085 26.8955 124.173 26.6553 124.173 26.3506ZM122.248 31.0352C122.869 31.0352 123.423 31.1436 123.909 31.3604C124.396 31.5771 124.809 31.8789 125.148 32.2656C125.488 32.6523 125.746 33.1094 125.922 33.6367C126.104 34.1582 126.194 34.7266 126.194 35.3418V35.5352C126.194 36.1973 126.098 36.8125 125.904 37.3809C125.717 37.9434 125.438 38.4355 125.069 38.8574C124.706 39.2734 124.261 39.5986 123.733 39.833C123.212 40.0674 122.617 40.1846 121.949 40.1846C121.281 40.1846 120.684 40.0674 120.156 39.833C119.635 39.5986 119.189 39.2734 118.82 38.8574C118.451 38.4355 118.17 37.9434 117.977 37.3809C117.789 36.8125 117.695 36.1973 117.695 35.5352V35.3418C117.695 35.1953 117.722 35.0518 117.774 34.9111C117.827 34.7705 117.892 34.627 117.968 34.4805C118.05 34.334 118.123 34.1787 118.188 34.0146C118.404 33.4873 118.7 32.998 119.075 32.5469C119.456 32.0957 119.91 31.7324 120.438 31.457C120.971 31.1758 121.574 31.0352 122.248 31.0352ZM121.932 32.3623C121.334 32.3623 120.842 32.5 120.455 32.7754C120.074 33.0508 119.79 33.417 119.603 33.874C119.415 34.3252 119.321 34.8145 119.321 35.3418V35.5352C119.321 35.9805 119.374 36.4023 119.479 36.8008C119.585 37.1992 119.743 37.5537 119.954 37.8643C120.171 38.1689 120.443 38.4092 120.771 38.585C121.105 38.7607 121.498 38.8486 121.949 38.8486C122.4 38.8486 122.79 38.7607 123.118 38.585C123.446 38.4092 123.716 38.1689 123.927 37.8643C124.138 37.5537 124.296 37.1992 124.401 36.8008C124.507 36.4023 124.56 35.9805 124.56 35.5352V35.3418C124.56 34.9434 124.507 34.5654 124.401 34.208C124.296 33.8506 124.135 33.5342 123.918 33.2588C123.707 32.9834 123.435 32.7666 123.101 32.6084C122.772 32.4443 122.383 32.3623 121.932 32.3623ZM134.395 30.4902V31.835H129.798V30.4902H134.395ZM135.827 30.4902V40H134.201V30.4902H135.827ZM129.402 30.4902H131.037L130.791 35.0781C130.75 35.7871 130.683 36.4141 130.589 36.959C130.501 37.498 130.378 37.9609 130.22 38.3477C130.067 38.7344 129.874 39.0508 129.64 39.2969C129.411 39.5371 129.136 39.7158 128.813 39.833C128.491 39.9443 128.119 40 127.697 40H127.188V38.5674L127.539 38.541C127.791 38.5234 128.005 38.4648 128.181 38.3652C128.362 38.2656 128.515 38.1191 128.638 37.9258C128.761 37.7266 128.86 37.4717 128.937 37.1611C129.019 36.8506 129.08 36.4814 129.121 36.0537C129.168 35.626 129.203 35.1279 129.227 34.5596L129.402 30.4902ZM138.016 35.3506V35.1484C138.016 34.4629 138.115 33.8271 138.314 33.2412C138.514 32.6494 138.801 32.1367 139.176 31.7031C139.551 31.2637 140.005 30.9238 140.538 30.6836C141.071 30.4375 141.669 30.3145 142.331 30.3145C142.999 30.3145 143.6 30.4375 144.133 30.6836C144.672 30.9238 145.129 31.2637 145.504 31.7031C145.885 32.1367 146.175 32.6494 146.374 33.2412C146.573 33.8271 146.673 34.4629 146.673 35.1484V35.3506C146.673 36.0361 146.573 36.6719 146.374 37.2578C146.175 37.8438 145.885 38.3564 145.504 38.7959C145.129 39.2295 144.675 39.5693 144.142 39.8154C143.614 40.0557 143.017 40.1758 142.349 40.1758C141.681 40.1758 141.08 40.0557 140.547 39.8154C140.014 39.5693 139.557 39.2295 139.176 38.7959C138.801 38.3564 138.514 37.8438 138.314 37.2578C138.115 36.6719 138.016 36.0361 138.016 35.3506ZM139.642 35.1484V35.3506C139.642 35.8252 139.697 36.2734 139.809 36.6953C139.92 37.1113 140.087 37.4805 140.31 37.8027C140.538 38.125 140.822 38.3799 141.162 38.5674C141.502 38.749 141.897 38.8398 142.349 38.8398C142.794 38.8398 143.184 38.749 143.518 38.5674C143.857 38.3799 144.139 38.125 144.361 37.8027C144.584 37.4805 144.751 37.1113 144.862 36.6953C144.979 36.2734 145.038 35.8252 145.038 35.3506V35.1484C145.038 34.6797 144.979 34.2373 144.862 33.8213C144.751 33.3994 144.581 33.0273 144.353 32.7051C144.13 32.377 143.849 32.1191 143.509 31.9316C143.175 31.7441 142.782 31.6504 142.331 31.6504C141.886 31.6504 141.493 31.7441 141.153 31.9316C140.819 32.1191 140.538 32.377 140.31 32.7051C140.087 33.0273 139.92 33.3994 139.809 33.8213C139.697 34.2373 139.642 34.6797 139.642 35.1484ZM154.855 30.4902V31.835H150.461V40H148.835V30.4902H154.855Z" fill="#000"/>
<g filter="url(#filter0_d_4709_2)">
<rect x="30" y="15" width="35" height="35" rx="3" fill="#4B5563"/>
</g>
<path d="M43.494 39V27.228H47.256C48.072 27.228 48.792 27.318 49.416 27.498C50.052 27.678 50.55 27.984 50.91 28.416C51.282 28.836 51.468 29.406 51.468 30.126C51.468 30.678 51.324 31.2 51.036 31.692C50.748 32.172 50.346 32.502 49.83 32.682V32.754C50.478 32.898 51.012 33.204 51.432 33.672C51.864 34.128 52.08 34.752 52.08 35.544C52.08 36.324 51.882 36.972 51.486 37.488C51.102 38.004 50.568 38.388 49.884 38.64C49.2 38.88 48.426 39 47.562 39H43.494ZM45.582 32.088H47.076C47.892 32.088 48.486 31.938 48.858 31.638C49.23 31.338 49.416 30.936 49.416 30.432C49.416 29.856 49.224 29.448 48.84 29.208C48.456 28.968 47.88 28.848 47.112 28.848H45.582V32.088ZM45.582 37.38H47.346C48.21 37.38 48.876 37.224 49.344 36.912C49.812 36.588 50.046 36.096 50.046 35.436C50.046 34.812 49.818 34.362 49.362 34.086C48.906 33.798 48.234 33.654 47.346 33.654H45.582V37.38Z" fill="white"/>
<defs>
<filter id="filter0_d_4709_2" x="0" y="0" width="95" height="95" filterUnits="userSpaceOnUse" color-interpolation-filters="sRGB">
<feFlood flood-opacity="0" result="BackgroundImageFix"/>
<feColorMatrix in="SourceAlpha" type="matrix" values="0 0 0 0 0 0 0 0 0 0 0 0 0 0 0 0 0 0 127 0" result="hardAlpha"/>
<feOffset dy="15"/>
<feGaussianBlur stdDeviation="15"/>
<feColorMatrix type="matrix" values="0 0 0 0 0 0 0 0 0 0 0 0 0 0 0 0 0 0 0.15 0"/>
<feBlend mode="normal" in2="BackgroundImageFix" result="effect1_dropShadow_4709_2"/>
<feBlend mode="normal" in="SourceGraphic" in2="effect1_dropShadow_4709_2" result="shape"/>
</filter>
</defs>
</svg>
